#!OML:ASF H:\LiuWeirdWalks\Patient Classification 1\Patient 1\Session 1\male.ASF
:FULLY-SPECIFIED
:DEGREES
111
root 0.125948 17.7094 -30.0743 6.23666 2.27855 -0.128562
lowerback 2.68187 -1.05518 -3.12887
upperback -3.38136 -1.45962 2.52207
thorax -4.86658 -0.561333 4.47967
lowerneck -19.1255 2.23373 7.23328
upperneck 23.6845 2.93353 -7.53133
head 11.0463 1.0562 -3.52797
rclavicle -2.36057e-016 -1.59028e-015
rhumerus -34.2275 -8.51631 -80.2448
rradius 22.5574
rwrist 0.593915
rhand -16.5167 -2.13955
rfingers 7.12502
rthumb 9.70169 -31.8961
lclavicle -2.36057e-016 -1.59028e-015
lhumerus -33.088 4.83156 87.1982
lradius 23.2884
lwrist 5.97606
lhand -11.4191 1.09898
lfingers 7.12502
lthumb 14.6167 30.5639
rfemur -14.1808 0.599214 20.591
rtibia 35.5219
rfoot -23.0012 -19.9228
rtoes -2.56999
lfemur -10.5894 -0.466039 -17.3636
ltibia 28.8971
lfoot -16.6938 15.6314
ltoes -9.26822
112
root 0.103476 17.7036 -30.0505 6.30915 2.31771 -0.21767
lowerback 2.80726 -1.63923 -3.4562
upperback -3.80115 -2.23476 3.13715
thorax -5.27004 -0.903745 5.37934
lowerneck -17.4841 3.16769 8.0271
upperneck 23.1456 4.45627 -8.83761
head 10.7167 1.69869 -3.90325
rclavicle -3.41269e-014 1.27222e-014
rhumerus -34.7859 -6.2325 -80.306
rradius 22.5752
rwrist 0.272428
rhand -16.486 -2.17337
rfingers 7.12502
rthumb 9.73124 -31.9286
lclavicle -3.41269e-014 1.27222e-014
lhumerus -34.2881 6.85913 86.9979
lradius 23.587
lwrist 5.85229
lhand -11.3921 1.07622
lfingers 7.12502
lthumb 14.6427 30.5392
rfemur -14.1322 0.637776 20.7759
rtibia 35.4664
rfoot -23.2402 -19.9153
rtoes -2.62418
lfemur -10.7513 -0.428677 -17.1712
ltibia 29.2058
lfoot -16.7965 15.615
ltoes -9.49205
113
root 0.0810536 17.6971 -30.0251 6.37304 2.3237 -0.340081
lowerback 2.96431 -2.49047 -3.87098
upperback -4.15984 -3.36187 4.04432
thorax -5.53681 -1.41274 6.67348
lowerneck -15.9021 4.53475 8.93605
upperneck 22.4858 6.68455 -10.6178
head 10.4983 2.64063 -4.37668
rclavicle 5.40756e-014 2.62396e-014
rhumerus -34.9853 -2.82612 -80.519
rradius 22.5548
rwrist -0.233224
rhand -16.4555 -2.24525
rfingers 7.12502
rthumb 9.76068 -31.9991
lclavicle 5.40756e-014 2.62396e-014
lhumerus -35.5231 9.96606 86.6835
lradius 23.9822
lwrist 5.66911
lhand -11.3739 1.06087
lfingers 7.12502
lthumb 14.6603 30.5226
rfemur -14.0646 0.691359 20.9952
rtibia 35.3946
rfoot -23.4734 -19.8908
rtoes -2.6928
lfemur -10.9427 -0.345534 -16.9446
ltibia 29.6008
lfoot -16.9177 15.6027
ltoes -9.78135
114
root 0.0592858 17.6896 -29.998 6.42117 2.29514 -0.491301
lowerback 3.13263 -3.18024 -4.1016
upperback -4.38843 -4.27204 4.77474
thorax -5.6813 -1.83043 7.66734
lowerneck -14.6965 5.63131 9.6673
upperneck 21.8807 8.46694 -12.0497
head 10.3612 3.41154 -4.76208
rclavicle 4.36581e-014 -5.48646e-014
rhumerus -35.0563 -0.0337769 -80.75
rradius 22.5668
rwrist -0.690032
rhand -16.4209 -2.32894
rfingers 7.12502
rthumb 9.79409 -32.0812
lclavicle 4.36581e-014 -5.48646e-014
lhumerus -36.4321 12.4322 86.3987
lradius 24.3569
lwrist 5.61059
lhand -11.3674 1.01927
lfingers 7.12502
lthumb 14.6666 30.4805
rfemur -13.9696 0.754989 21.2393
rtibia 35.307
rfoot -23.697 -19.8414
rtoes -2.76519
lfemur -11.1597 -0.222723 -16.6935
ltibia 30.0901
lfoot -17.0559 15.6033
ltoes -10.1412
115
root 0.0385219 17.6812 -29.969 6.45946 2.23195 -0.673922
lowerback 3.27529 -3.58416 -4.09177
upperback -4.45922 -4.79678 5.22637
thorax -5.72006 -2.08022 8.19541
lowerneck -14.1039 6.32075 10.0989
upperneck 21.4535 9.5681 -12.9079
head 10.3084 3.892 -4.98399
rclavicle 3.60297e-016 4.77083e-015
rhumerus -35.0066 1.64497 -80.8997
rradius 22.5874
rwrist -1.0091
rhand -16.3972 -2.36563
rfingers 7.12502
rthumb 9.81699 -32.1168
lclavicle 3.60297e-016 4.77083e-015
lhumerus -36.8647 13.8592 86.2587
lradius 24.6559
lwrist 5.66651
lhand -11.3704 0.972928
lfingers 7.12502
lthumb 14.6636 30.4344
rfemur -13.8529 0.814723 21.5095
rtibia 35.2039
rfoot -23.8924 -19.7627
rtoes -2.84294
lfemur -11.4098 -0.0506947 -16.4165
ltibia 30.6857
lfoot -17.2051 15.6068
ltoes -10.5393
116
root 0.0186621 17.6722 -29.938 6.48366 2.16761 -0.851969
lowerback 3.3612 -3.71876 -3.92396
upperback -4.40046 -4.96102 5.40825
thorax -5.67716 -2.1694 8.30876
lowerneck -14.0561 6.60524 10.2061
upperneck 21.2568 9.99829 -13.1722
head 10.3102 4.07654 -5.0292
rclavicle 2.73888e-014 -1.74931e-014
rhumerus -34.9076 2.23405 -80.9473
rradius 22.6197
rwrist -1.17651
rhand -16.3886 -2.39583
rfingers 7.12502
rthumb 9.82522 -32.1466
lclavicle 2.73888e-014 -1.74931e-014
lhumerus -36.8864 14.278 86.2806
lradius 24.881
lwrist 5.83128
lhand -11.3749 0.9303
lfingers 7.12502
lthumb 14.6594 30.3921
rfemur -13.7018 0.834102 21.7681
rtibia 35.0856
rfoot -24.0731 -19.6579
rtoes -2.93101
lfemur -11.694 0.153662 -16.1497
ltibia 31.3965
lfoot -17.378 15.5891
ltoes -10.93
